<?xml version="1.0" encoding="UTF-8"?>
<!-- Creator: CorelDRAW -->
<svg xmlns="http://www.w3.org/2000/svg" xmlns:xlink="http://www.w3.org/1999/xlink" xmlns:xodm="http://www.corel.com/coreldraw/odm/2003" xml:space="preserve" width="12.7559in" height="1.38432in" version="1.1" style="shape-rendering:geometricPrecision; text-rendering:geometricPrecision; image-rendering:optimizeQuality; fill-rule:evenodd; clip-rule:evenodd" viewBox="0 0 1975.24 214.36">
 <defs>
  <style type="text/css">
   <![CDATA[
    .fil1 {fill:#E53846;fill-rule:nonzero}
    .fil0 {fill:#31394D;fill-rule:nonzero}
   ]]>
  </style>
 </defs>
 <g id="Layer_x0020_1">
  <metadata id="CorelCorpID_0Corel-Layer"></metadata>
  <path class="fil0" d="M1138.79 155.91c0,5.79 -5.11,10.9 -11.59,10.9l-49.75 0 0 -118.94 49.75 0c6.48,0 11.59,5.11 11.59,10.91l0 97.13zm-11.59 -150.97l-92.35 0 0 204.47 92.35 0c30.34,0 54.2,-24.2 54.2,-53.5l0 -97.13c0,-29.65 -24.2,-53.84 -54.2,-53.84z"></path>
  <path class="fil0" d="M1519.79 209.42l-71.24 0c-29.65,0 -54.18,-24.2 -54.18,-53.84l0 -150.63 42.61 0 0 150.63c0,6.13 5.11,11.24 11.58,11.24l70.9 0 0.34 42.61z"></path>
  <path class="fil0" d="M1698.53 4.94l0 150.63c0,29.64 -24.18,53.84 -53.84,53.84l-38.85 0c-29.65,0 -53.84,-24.2 -53.84,-53.84l0 -150.63 42.61 0 0 150.63c0,6.13 5.11,11.24 11.24,11.24l38.85 0c6.14,0 11.25,-5.11 11.25,-11.24l0 -150.63 42.59 0z"></path>
  <polygon class="fil0" points="1784.91,209.42 1742.31,209.42 1742.31,4.94 1784.91,4.94 "></polygon>
  <path class="fil0" d="M1932.64 155.91c0,5.79 -5.11,10.9 -11.59,10.9l-49.75 0 0 -118.94 49.75 0c6.48,0 11.59,5.11 11.59,10.91l0 97.13zm-11.59 -150.97l-92.35 0 0 204.47 92.35 0c30.34,0 54.2,-24.2 54.2,-53.5l0 -97.13c0,-29.65 -24.2,-53.84 -54.2,-53.84z"></path>
  <path class="fil0" d="M729.16 166.47c-6.46,0 -11.57,-5.11 -11.57,-11.24l0 -8.87 0 -14.2 70.08 0 0 -42.25 -70.08 0 0 -31.13c0,-6.48 5.11,-11.59 11.57,-11.59l70.9 0 0 -42.25 -70.9 0c-30.32,0 -54.18,24.2 -54.18,53.84l0 96.45c0,29.98 24.2,54.18 54.18,54.18l71.24 0 0 -42.94 -71.24 0z"></path>
  <path class="fil0" d="M642.78 209.42l-71.24 0c-29.65,0 -54.18,-24.2 -54.18,-53.84l0 -150.63 42.61 0 0 150.63c0,6.13 5.11,11.24 11.58,11.24l70.9 0 0.34 42.61z"></path>
  <path class="fil0" d="M1279.02 47.53l71.57 0 0 -42.59 -71.57 0c-30.32,0 -53.84,24.54 -53.84,54.18l0 150.29 42.61 0 0 -62.37 0 -14.88 65.08 0 0 -42.25 -65.08 0 0 -30.79c0,-6.14 5.11,-11.59 11.24,-11.59z"></path>
  <path class="fil0" d="M936.87 4.94l-38.51 0c-29.99,0 -54.18,24.2 -54.18,54.18l0 150.29 42.95 0 0 -64.03 0 -44.31 0 -41.95c0,-6.14 5.11,-11.25 11.24,-11.25l38.51 0c6.14,0 11.25,5.11 11.25,11.25l0 41.95 -44.47 0 0 42.3 44.47 0.16 0 65.88 42.94 0 0 -150.29c0,-29.98 -24.2,-54.18 -54.2,-54.18z"></path>
  <path class="fil1" d="M270.48 122.34l-0 0 0 0 -101.06 0 0 0.08c-42.79,0 -77.49,-34.69 -77.49,-77.49l-0.11 0 0 -8.81 -40.11 -15.78 0 24.59c0,65.01 52.7,117.71 117.71,117.71l0 -0.19 101.06 0 0 0 0 0c3.26,0 5.9,2.64 5.9,5.9 0,3.26 -2.64,5.9 -5.9,5.9l-45.59 0 0 0 -55.47 0 0 0.08c-71.47,-0 -129.4,-57.94 -129.4,-129.4l0.08 0 0 -29.15 -40.11 -15.78 0 44.93c0,93.57 75.85,169.43 169.43,169.43l0 0 101.06 0 0 0 0 0c25.41,0 46.01,-20.6 46.01,-46.01 0,-25.41 -20.6,-46.01 -46.01,-46.01z"></path>
  <path class="fil1" d="M173.49 92.02l0 0 0 0 101.06 0 0 -0.08c42.79,0 77.49,34.69 77.49,77.49l0.11 0 0 8.81 40.11 15.78 0 -24.59c0,-65.01 -52.7,-117.71 -117.71,-117.71l0 0.19 -101.06 0 -0 0 0 -0c-3.26,0 -5.9,-2.64 -5.9,-5.9 0,-3.26 2.64,-5.9 5.9,-5.9l45.59 0 0 0 55.47 0 0 -0.08c71.47,0 129.4,57.94 129.4,129.4l-0.08 0 0 29.15 40.11 15.78 0 -44.93c0,-93.57 -75.85,-169.43 -169.43,-169.43l0 0 -101.06 0 0 0 -0 0c-25.41,0 -46.01,20.6 -46.01,46.01 0,25.41 20.6,46.01 46.01,46.01z"></path>
 </g>
</svg>
