<?xml version="1.0" encoding="UTF-8"?> <svg xmlns="http://www.w3.org/2000/svg" id="Alicat_Logo" data-name="Alicat Logo" viewBox="0 0 749.03 202.92"><defs><style> .cls-1 { fill: #231f20; } .cls-2 { font-family: OpenSans-Medium, 'Open Sans'; font-size: 36.15px; font-weight: 500; } .cls-2, .cls-3 { fill: #e31b23; } </style></defs><g id="SCIENTIFIC"><path class="cls-1" d="M426.29,196.19c1.85,1.07,4.64,2,7.56,2,3.67,0,5.71-1.72,5.71-4.27,0-2.37-1.58-3.76-5.56-5.2-5.15-1.84-8.44-4.59-8.44-9.08,0-5.11,4.26-9,11.04-9,3.39,0,5.88.75,7.52,1.58l-1.41,4.59c-1.11-.6-3.29-1.48-6.21-1.48-3.61,0-5.19,1.95-5.19,3.76,0,2.4,1.79,3.53,5.98,5.13,5.42,2.05,8.07,4.78,8.07,9.29,0,5-3.8,9.42-11.87,9.42-3.29,0-6.72-.98-8.44-2l1.26-4.73Z"></path><path class="cls-1" d="M474.96,201.48c-1.33.7-4.31,1.44-8.05,1.44-9.93,0-15.96-6.26-15.96-15.78,0-10.28,7.14-16.51,16.69-16.51,3.76,0,6.44.79,7.6,1.39l-1.25,4.55c-1.48-.65-3.53-1.21-6.13-1.21-6.35,0-10.96,3.99-10.96,11.51,0,6.86,4.05,11.26,10.91,11.26,2.32,0,4.73-.45,6.22-1.16l.91,4.5Z"></path><rect class="cls-1" x="483.14" y="171.14" width="5.71" height="31.27"></rect><polygon class="cls-1" points="515.94 188.54 504.15 188.54 504.15 197.72 517.33 197.72 517.33 202.41 498.45 202.41 498.45 171.14 516.63 171.14 516.63 175.83 504.15 175.83 504.15 183.9 515.94 183.9 515.94 188.54"></polygon><path class="cls-1" d="M525.82,202.41v-31.27h6.48l8.08,13.41c2.1,3.48,3.91,7.1,5.35,10.48h.09c-.37-4.16-.51-8.21-.51-12.98v-10.91h5.29v31.27h-5.89l-8.16-13.78c-2-3.39-4.07-7.24-5.61-10.76l-.14.05c.24,4.02.28,8.16.28,13.31v11.18h-5.24Z"></path><polygon class="cls-1" points="566.65 175.93 557.74 175.93 557.74 171.14 581.35 171.14 581.35 175.93 572.34 175.93 572.34 202.41 566.65 202.41 566.65 175.93"></polygon><rect class="cls-1" x="588.49" y="171.14" width="5.71" height="31.27"></rect><polygon class="cls-1" points="603.24 171.14 621.28 171.14 621.28 175.83 608.95 175.83 608.95 184.46 620.44 184.46 620.44 189.14 608.95 189.14 608.95 202.41 603.24 202.41 603.24 171.14"></polygon><rect class="cls-1" x="630.32" y="171.14" width="5.71" height="31.27"></rect><path class="cls-1" d="M668.47,201.48c-1.35.7-4.32,1.44-8.08,1.44-9.92,0-15.94-6.26-15.94-15.78,0-10.28,7.14-16.51,16.69-16.51,3.76,0,6.44.79,7.6,1.39l-1.25,4.55c-1.49-.65-3.54-1.21-6.12-1.21-6.36,0-10.95,3.99-10.95,11.51,0,6.86,4.04,11.26,10.9,11.26,2.31,0,4.73-.45,6.21-1.16l.94,4.5Z"></path></g><polygon id="Line" class="cls-1" points="0 176.76 402.58 176.76 402.58 171.2 1.79 171.2 0 176.76"></polygon><g id="ALICAT"><path class="cls-3" d="M285.64,4.28l-5.36,156.14h-40.85l2.93-28.06h-14.29l-7.48,28.06h-41.34L227.87,4.28h57.77ZM246.33,104.68c1.17-17.69,3.09-39.54,5.75-65.58-9.47,29.89-15.97,51.74-19.52,65.58h13.78Z"></path><polygon class="cls-3" points="356.75 4.28 334.18 129.17 358.5 129.17 352.85 160.42 288.56 160.42 316.77 4.28 356.75 4.28"></polygon><polygon class="cls-3" points="430.86 4.28 402.62 160.42 362.66 160.42 390.87 4.28 430.86 4.28"></polygon><path class="cls-3" d="M620.76,4.28l-5.35,156.14h-40.86l2.93-28.06h-14.3l-7.48,28.06h-41.33L562.97,4.28h57.79ZM581.43,104.68c1.17-17.69,3.09-39.54,5.76-65.58-9.47,29.89-15.98,51.74-19.52,65.58h13.77Z"></path><polygon class="cls-3" points="720.84 4.28 715.17 35.53 691.44 35.53 668.87 160.42 628.91 160.42 651.47 35.53 627.82 35.53 633.47 4.28 720.84 4.28"></polygon><path class="cls-3" d="M525.75,69.09h-40.55l4.65-23.83c1.42-7.88,1.88-12.8,1.36-14.75-.51-1.95-2.24-2.93-5.2-2.93-3.34,0-5.67,1.19-7,3.57-1.33,2.38-2.7,7.51-4.13,15.41l-13.09,72.44c-1.37,7.58-1.81,12.52-1.33,14.84.48,2.31,2.3,3.47,5.45,3.47s5.2-1.16,6.55-3.47c1.35-2.32,2.8-7.76,4.35-16.32l3.66-22.73h40.55l-1.22,9.21c-2.92,16.14-6.12,27.59-9.62,34.34-3.5,6.75-9.61,12.67-18.34,17.75-3.04,1.78-9.64,4.35-9.64,4.35l-42.24.04s-4.58-1.99-6.57-3.22c-6.93-4.3-10.96-10.26-12.09-17.87-1.13-7.61-.31-19.06,2.45-34.34l8.23-45.56c2.03-11.24,3.94-19.67,5.72-25.29,1.79-5.62,5.06-11.03,9.82-16.23,4.76-5.2,10.8-9.3,18.12-12.29,1.15-.47,3.41-1.37,3.41-1.37h41.42s5.41,2.32,7.66,3.82c6.93,4.62,11,10.37,12.19,17.27,1.19,6.89.48,17.62-2.15,32.18l-2.43,11.54Z"></path></g><g id="Logo"><path class="cls-3" d="M67.38,4.22h-13.65l-5.83,18.75s34.32,57.13,143.36,53.82l2.77-8.84s-109.14,4.98-126.64-63.73"></path><path class="cls-3" d="M189.12,83.67s-110.49-4.04-175.74,50.28l-8.24,26.49h9.74s41.97-66.17,171.63-68.39l2.61-8.38Z"></path><path class="cls-3" d="M105.63,4.21l108.19.04-17.51,56.46s-74.06,7.66-90.68-56.49"></path><path class="cls-3" d="M184.3,99.12l-19.06,61.32-108.02.02s32.26-59.75,127.08-61.33"></path><path class="cls-3" d="M38.34,53.71s23.54,18.27,88.52,26.24c0,0-44.57-.55-104.19,24.29l15.67-50.54Z"></path></g><text class="cls-2" transform="translate(718.95 30.98)"><tspan x="0" y="0">®</tspan></text></svg> 